<?xml version="1.0" encoding="utf-8"?>
<!-- Generator: Adobe Illustrator 25.3.1, SVG Export Plug-In . SVG Version: 6.00 Build 0)  -->
<svg version="1.1" id="Layer_1" xmlns="http://www.w3.org/2000/svg" xmlns:xlink="http://www.w3.org/1999/xlink" x="0px" y="0px"
	 viewBox="0 0 792 216" style="enable-background:new 0 0 792 216;" xml:space="preserve">
<style type="text/css">
	.st0{fill-rule:evenodd;clip-rule:evenodd;fill:#6706CE;}
	.st1{fill-rule:evenodd;clip-rule:evenodd;fill:#FFFFFF;}
	.st2{fill:#6706CE;}
</style>
<g>
	<circle class="st0" cx="135.19" cy="108" r="72"/>
</g>
<g>
	<path class="st1" d="M130.23,100.24c6.65-5.18,3.73-12.27-7.26-10.9c-12.73,1.59-28.95,14.03-32.99,28.97
		c-0.33,1.22-0.59,2.47-0.77,3.72c-0.17,1.24-0.27,2.48-0.28,3.73c-0.01,1.24,0.06,2.47,0.21,3.7c0.15,1.23,0.39,2.44,0.71,3.63
		c0.33,1.21,0.74,2.39,1.22,3.54c0.5,1.18,1.08,2.32,1.74,3.42c0.68,1.14,1.44,2.23,2.26,3.27c2.8,3.55,6.39,6.52,10.23,8.89
		c0.83,0.51,1.72,1.01,2.7,1.06c1.43,0.07,2.51-1.06,2.56-2.46c0.02-0.52-0.11-1.02-0.35-1.44c-3.22-5.68-5.89-14.11-5.34-19.44
		C106.25,116.71,119.65,108.48,130.23,100.24z"/>
	<path class="st1" d="M183.25,123.32c-0.7-1.66-2.44-2.59-4.2-2.43c-1.2,0.11-2.2,0.75-3.01,1.6c-1.32,1.19-2.23,2.85-3.22,4.3
		c-1.17,1.7-2.38,3.36-3.7,4.95c-2.59,3.13-5.58,5.95-9.06,8.07c-5.91,3.59-11.32,5.31-17.82,1.99c-4.76-3.81-3.15-8.3,0.79-11.97
		c6.74-6.26,14.86-10.66,21.24-17.39c6-6.32,11.29-14.19,12.54-22.99c0.35-2.47,0.36-4.98-0.04-7.44
		c-1.87-11.59-12.35-18.95-22.94-22.08c-13.48-3.98-28.33-2.82-41.08,3.08c-5.25,2.43-10.14,5.67-14.39,9.6
		c-1.88,1.74-3.66,3.6-5.3,5.57c-2.66,3.19-5.7,6.9-6.21,11.18c-0.32,2.64,2.06,4.46,4.56,4.12c1.68-0.23,3.16-1.24,4.39-2.34
		c1.43-1.28,2.75-2.7,4.13-4.04c4.17-4.04,8.63-7.79,13.92-10.27c6.75-3.16,14.31-4.69,21.74-3.92c7.54,0.79,16.72,4.19,19.47,12
		c2.87,8.15-3.3,16.17-8.92,21.38c-9.19,8.51-26.64,17.19-24.72,32.2c1.03,8.04,6.82,14.93,14.22,17.99
		c12.88,5.33,26.82-1.16,35.73-11.08c2.99-3.18,7.29-8.6,11.2-16.67C183.33,127.16,183.96,125.01,183.25,123.32z"/>
</g>
<g>
	<path class="st2" d="M255.62,104.51h0.2c3.53-6.35,9.58-9.17,16.74-9.17h3.53v17.64c-2.52-1.41-4.94-1.71-7.76-1.71
		c-10.18,0-12.7,6.76-12.7,15.63v20.87h-18.35V96.04h18.35V104.51z"/>
	<path class="st2" d="M342.35,121.95c0,17.54-14.52,27.52-31.15,27.52c-16.53,0-31.15-9.88-31.15-27.52s14.52-27.62,31.15-27.62
		C327.83,94.32,342.35,104.3,342.35,121.95z M299.4,121.95c0,6.55,4.33,11.59,11.8,11.59c7.46,0,11.8-5.04,11.8-11.59
		c0-6.35-4.34-11.7-11.8-11.7C303.74,110.25,299.4,115.59,299.4,121.95z"/>
	<path class="st2" d="M347.96,64.08h18.35v37c3.93-4.54,10.08-6.76,16.03-6.76c15.32,0,25.91,12.7,25.91,27.52
		c0,14.92-10.69,27.62-26.11,27.62c-6.05,0-12.3-2.32-15.63-7.46h-0.2v5.75h-18.35V64.08z M365.71,121.95
		c0,6.55,4.34,11.59,11.8,11.59c7.46,0,11.8-5.04,11.8-11.59c0-6.35-4.34-11.7-11.8-11.7C370.04,110.25,365.71,115.59,365.71,121.95
		z"/>
	<path class="st2" d="M475.67,121.95c0,17.54-14.52,27.52-31.15,27.52c-16.53,0-31.15-9.88-31.15-27.52s14.52-27.62,31.15-27.62
		S475.67,104.3,475.67,121.95z M432.73,121.95c0,6.55,4.34,11.59,11.8,11.59c7.46,0,11.8-5.04,11.8-11.59
		c0-6.35-4.34-11.7-11.8-11.7C437.06,110.25,432.73,115.59,432.73,121.95z"/>
	<path class="st2" d="M504.31,147.76h-18.35v-36.6h-6.45V96.04h6.45v-6.55c0-7.16,0.2-12.4,5.24-18.15
		c4.54-5.34,11.09-8.27,18.05-8.27c2.82,0,5.34,0.5,7.86,1.81v15.83c-2.12-0.91-4.03-1.71-6.45-1.71c-4.74,0-6.35,2.82-6.35,8.67
		v8.37h12.8v15.12h-12.8V147.76z"/>
	<path class="st2" d="M542.11,147.76h-18.35V64.08h18.35V147.76z"/>
	<path class="st2" d="M610.15,121.95c0,17.54-14.52,27.52-31.15,27.52c-16.53,0-31.15-9.88-31.15-27.52S562.36,94.32,579,94.32
		C595.63,94.32,610.15,104.3,610.15,121.95z M567.2,121.95c0,6.55,4.34,11.59,11.8,11.59c7.46,0,11.8-5.04,11.8-11.59
		c0-6.35-4.34-11.7-11.8-11.7C571.54,110.25,567.2,115.59,567.2,121.95z"/>
	<path class="st2" d="M639.89,124.06l13.01-28.03h10.89l13.01,28.03l13.01-28.03h20.26l-27.02,51.72h-11.9l-12.8-28.33l-12.8,28.33
		h-11.9l-27.02-51.72h20.37L639.89,124.06z"/>
</g>
</svg>
